<?xml version="1.0" encoding="UTF-8" standalone="no"?>
<!-- Created with Inkscape (http://www.inkscape.org/) -->

<svg
   width="220"
   height="220"
   viewBox="0 0 58.208332 58.208332"
   version="1.1"
   id="svg5"
   inkscape:version="1.1.2 (0a00cf5339, 2022-02-04)"
   sodipodi:docname="gingembre_icon.svg"
   xmlns:inkscape="http://www.inkscape.org/namespaces/inkscape"
   xmlns:sodipodi="http://sodipodi.sourceforge.net/DTD/sodipodi-0.dtd"
   xmlns="http://www.w3.org/2000/svg"
   xmlns:svg="http://www.w3.org/2000/svg">
  <sodipodi:namedview
     id="namedview7"
     pagecolor="#ffffff"
     bordercolor="#666666"
     borderopacity="1.0"
     inkscape:pageshadow="2"
     inkscape:pageopacity="0.0"
     inkscape:pagecheckerboard="0"
     inkscape:document-units="mm"
     showgrid="false"
     inkscape:zoom="2.7865881"
     inkscape:cx="86.844554"
     inkscape:cy="94.918944"
     inkscape:window-width="1920"
     inkscape:window-height="1016"
     inkscape:window-x="0"
     inkscape:window-y="0"
     inkscape:window-maximized="1"
     inkscape:current-layer="g325"
     units="mm"
     height="215.43307px"
     showguides="false" />
  <defs
     id="defs2" />
  <g
     inkscape:label="Layer 1"
     inkscape:groupmode="layer"
     id="layer1"
     transform="translate(-79.020981,-119.52685)">
    <g
       id="g325"
       transform="translate(0.13982669,-0.0534087)">
      <g
         id="g2087"
         transform="translate(3.7041668,0.52916663)">
        <path
           style="fill:#d3fda1;stroke-width:0.264583"
           d="m 123.02022,173.61595 -5.21868,-2.83776 0.16338,-1.85993 0.16338,-1.85993 -0.37517,-0.31136 -0.37517,-0.31137 -1.1774,0.79675 -1.17739,0.79674 -1.54953,0.79727 -1.54953,0.79727 -2.02234,0.5505 -2.02235,0.5505 -3.83646,-0.005 -3.83646,-0.005 -2.778116,-0.57821 -2.77813,-0.57821 -2.06865,-0.89005 -2.06866,-0.89004 -1.49996,-0.8812 -1.49996,-0.8812 -2.2887,-2.26399 -2.2887,-2.26398 -1.33038,-2.7631 -1.33039,-2.76308 -0.43774,-1.81114 -0.43774,-1.81114 -0.25911,-2.42219 -0.25911,-2.42219 0.16836,-2.11667 0.16835,-2.11667 0.40471,-1.85208 0.40471,-1.85208 0.65565,-1.57254 0.65566,-1.57253 1.00786,-1.48415 1.00787,-1.48414 1.59675,-1.47832 1.59676,-1.47831 1.57222,-0.95508 1.57223,-0.95508 1.81753,-0.68985 1.81753,-0.68986 1.98437,-0.35928 1.98438,-0.35928 1.45521,-0.005 1.455196,-0.005 1.82892,0.38746 1.82891,0.38745 1.61067,0.75889 1.61067,0.75888 1.96439,1.4949 1.9644,1.4949 h 0.35071 0.3507 l 0.0152,-0.33073 0.0152,-0.33073 0.46974,-3.9258 0.46975,-3.92579 0.36715,-0.22692 0.36715,-0.22691 5.69636,-1.60216 5.69635,-1.60217 0.33073,1.9e-4 0.33073,1.8e-4 v 0.27552 0.27552 l -2.13026,10.22984 -2.13025,10.22984 -0.42606,1.9962 -0.42605,1.99621 -0.22737,0.29839 -0.22738,0.29839 -5.00449,1.91927 -5.00449,1.91926 -0.35012,-0.13435 -0.35011,-0.13435 -1.01304,-2.87706 -1.01304,-2.87705 -1.05723,-1.98438 -1.05722,-1.98437 -1.05185,-1.3676 -1.05186,-1.36759 -1.41966,-0.97777 -1.41967,-0.97776 -1.194016,-0.13458 -1.19402,-0.13459 -0.91254,0.1712 -0.91254,0.17119 -1.21093,1.06591 -1.21094,1.0659 -0.82049,1.66666 -0.82049,1.66666 -0.30088,1.75652 -0.30088,1.75652 0.32229,2.89846 0.3223,2.89846 0.67222,2.31969 0.67221,2.31969 0.91244,1.73636 0.91243,1.73637 1.08638,1.31619 1.08637,1.31619 1.49177,1.12889 1.491756,1.12888 1.80469,0.55623 1.80469,0.55623 2.29635,-0.11173 2.29635,-0.11174 1.52205,-0.69917 1.52206,-0.69916 1.46641,-1.38687 1.4664,-1.38686 -0.078,-0.54568 -0.078,-0.54568 -1.7198,-0.16752 -1.71979,-0.16751 -4.68389,-0.0309 -4.68388,-0.0309 0.13397,-1.38906 0.13397,-1.38906 0.12682,-0.84224 0.12682,-0.84224 0.85122,-0.27325 0.85122,-0.27324 5.42396,-1.44684 5.42396,-1.44684 5.9323,-1.48615 5.9323,-1.48616 1.69574,1.66723 1.69574,1.66723 -0.15429,3.175 -0.15429,3.175 -0.4266,9.92187 -0.42661,9.92188 -0.17469,0.19192 -0.1747,0.19193 z"
           id="path327" />
      </g>
    </g>
  </g>
</svg>
