<?xml version="1.0" standalone="no"?>
<!DOCTYPE svg PUBLIC "-//W3C//DTD SVG 20010904//EN"
 "http://www.w3.org/TR/2001/REC-SVG-20010904/DTD/svg10.dtd">
<svg version="1.0" xmlns="http://www.w3.org/2000/svg"
 width="860.000000pt" height="860.000000pt" viewBox="0 0 860.000000 860.000000"
 preserveAspectRatio="xMidYMid meet">
<metadata>
Created by potrace 1.14, written by Peter Selinger 2001-2017
</metadata>
<g transform="translate(0.000000,860.000000) scale(0.100000,-0.100000)"
fill="#000000" stroke="none">
<path d="M7340 8583 c-25 -8 -85 -25 -135 -39 -123 -34 -186 -52 -253 -73 -18
-5 -35 -10 -37 -10 -3 -1 -6 -1 -7 -2 -2 0 -10 -2 -18 -4 -8 -2 -64 -17 -125
-35 -112 -32 -252 -71 -270 -74 -5 -1 -14 -4 -20 -7 -5 -4 -35 -12 -65 -19
-30 -7 -62 -16 -70 -20 -8 -5 -28 -10 -45 -13 -16 -3 -70 -18 -120 -32 -49
-15 -97 -29 -105 -30 -8 -2 -49 -14 -90 -25 -41 -12 -79 -23 -85 -24 -5 -1
-55 -15 -110 -31 -109 -32 -215 -88 -216 -114 0 -9 -2 -25 -4 -36 -4 -21 -13
-99 -21 -172 -2 -24 -6 -55 -8 -70 -3 -16 -7 -50 -10 -78 -3 -27 -8 -70 -11
-95 -3 -25 -8 -63 -10 -85 -3 -22 -7 -60 -10 -85 -4 -25 -8 -61 -10 -80 -7
-63 -14 -114 -20 -165 -3 -27 -9 -70 -11 -95 -3 -25 -7 -56 -9 -70 -8 -59 -18
-168 -18 -202 0 -37 -2 -38 -36 -39 -20 -1 -45 0 -56 1 -15 2 -183 121 -270
192 -5 5 -41 32 -80 61 -193 146 -240 182 -245 187 -5 6 -85 45 -230 113 -41
19 -120 56 -175 82 -55 26 -111 49 -125 51 -14 3 -33 7 -42 10 -10 3 -30 7
-45 10 -16 2 -39 7 -53 10 -14 4 -34 8 -45 10 -11 1 -51 10 -90 18 -268 60
-252 59 -555 53 -102 -2 -190 -6 -195 -9 -6 -4 -29 -9 -51 -12 -22 -4 -51 -9
-64 -11 -14 -3 -41 -8 -60 -11 -19 -2 -48 -8 -65 -11 -46 -10 -47 -10 -90 -17
-52 -9 -84 -15 -115 -21 -14 -3 -38 -8 -54 -10 -35 -5 -65 -14 -91 -25 -11 -5
-58 -24 -105 -41 -47 -17 -107 -40 -135 -51 -27 -11 -77 -29 -110 -40 -33 -12
-64 -24 -70 -28 -5 -4 -28 -13 -50 -20 -22 -7 -69 -32 -106 -55 -36 -24 -79
-50 -95 -59 -16 -9 -41 -24 -56 -34 -15 -9 -74 -45 -130 -79 -103 -61 -172
-118 -368 -303 -26 -25 -90 -84 -142 -131 -69 -64 -115 -118 -173 -205 -44
-66 -86 -125 -93 -132 -6 -7 -12 -17 -12 -22 0 -5 -6 -15 -13 -22 -22 -24 -77
-108 -77 -118 0 -6 -4 -10 -9 -10 -5 0 -23 -35 -41 -77 -17 -43 -37 -91 -45
-108 -55 -124 -135 -325 -140 -352 -3 -16 -7 -39 -11 -53 -3 -14 -11 -52 -19
-85 -7 -33 -20 -93 -29 -132 -8 -40 -18 -86 -21 -102 -3 -17 -9 -41 -14 -54
-6 -14 -7 -27 -5 -30 3 -3 1 -14 -5 -25 -6 -11 -13 -58 -15 -104 -3 -45 -6
-83 -6 -83 -2 0 -7 -59 -15 -175 -3 -47 -8 -116 -12 -155 -9 -91 -8 -225 1
-300 4 -33 8 -78 11 -100 3 -37 9 -91 20 -185 2 -19 7 -61 10 -93 3 -32 8 -79
11 -105 3 -26 7 -63 9 -82 5 -42 1 -26 64 -290 68 -282 68 -283 112 -371 21
-42 36 -79 33 -81 -2 -3 2 -11 11 -18 8 -7 15 -16 15 -21 0 -4 37 -84 81 -176
45 -92 113 -233 151 -313 l70 -145 346 -342 c294 -292 358 -350 429 -393 47
-27 89 -50 94 -50 5 0 9 -4 9 -9 0 -5 8 -11 18 -15 9 -3 24 -10 32 -15 54 -36
225 -131 275 -153 64 -29 137 -60 145 -63 3 0 27 -11 54 -23 27 -12 51 -22 55
-22 3 0 28 -11 55 -25 27 -14 55 -25 63 -25 7 0 13 -5 13 -10 0 -6 3 -9 8 -9
4 1 10 0 15 -1 4 -1 10 -3 15 -5 7 -2 26 -9 107 -45 28 -12 61 -23 75 -25 22
-3 142 -28 195 -41 11 -3 29 -6 40 -8 11 -2 34 -6 50 -10 55 -12 70 -15 170
-35 56 -11 108 -22 115 -25 8 -3 29 -7 45 -10 17 -2 66 -12 110 -21 70 -15
154 -17 657 -19 l577 -1 213 58 c117 32 222 60 233 63 11 3 27 7 35 9 8 2 15
4 15 5 0 1 7 3 15 5 81 16 237 85 283 123 9 8 17 12 17 9 0 -20 459 246 490
284 3 3 35 25 73 49 l67 42 37 -28 c81 -65 75 -53 69 -135 -3 -41 -8 -101 -11
-134 -3 -33 -8 -82 -10 -110 -2 -27 -7 -84 -10 -125 -4 -41 -8 -86 -9 -100 -1
-20 10 -29 69 -60 39 -19 72 -37 75 -40 6 -6 81 -47 240 -131 25 -13 47 -26
50 -29 3 -3 21 -13 40 -22 34 -17 125 -66 260 -140 36 -19 101 -55 145 -78 44
-23 91 -49 104 -58 14 -8 57 -32 95 -52 39 -20 91 -48 116 -62 25 -14 86 -47
135 -73 50 -27 102 -57 118 -67 15 -11 27 -16 27 -12 0 3 6 2 13 -4 6 -5 29
-20 51 -31 l38 -22 26 32 c17 19 27 45 28 68 3 42 14 315 19 446 2 50 6 146
10 215 3 69 8 172 10 230 2 58 4 105 5 105 0 0 3 56 5 125 2 69 7 188 10 265
4 77 8 176 10 220 3 86 12 293 21 465 2 58 6 157 9 220 2 63 6 167 9 230 3 63
8 171 11 240 6 159 14 331 20 440 9 169 17 327 20 415 2 50 6 138 10 196 l6
106 -163 161 c-303 299 -348 342 -355 342 -5 0 -28 -5 -53 -11 -25 -6 -52 -12
-60 -14 -8 -2 -15 -4 -15 -5 0 -2 -11 -4 -50 -13 -11 -3 -103 -26 -205 -52
-102 -25 -193 -48 -203 -50 -10 -2 -28 -7 -40 -11 -12 -4 -29 -8 -37 -10 -8
-1 -53 -11 -100 -23 -47 -12 -92 -23 -100 -25 -8 -2 -35 -9 -60 -16 -25 -7
-56 -14 -70 -17 -40 -8 -55 -11 -55 -13 0 -1 -7 -3 -15 -5 -8 -2 -33 -8 -55
-13 -84 -22 -171 -44 -185 -47 -8 -1 -35 -8 -60 -15 -25 -7 -56 -14 -70 -17
-14 -2 -48 -11 -76 -19 -28 -8 -61 -17 -73 -19 -95 -21 -156 -38 -167 -46 -6
-5 -14 -6 -17 -3 -3 3 -30 -1 -59 -10 -29 -9 -66 -21 -83 -26 -16 -5 -41 -11
-55 -14 -14 -3 -77 -19 -140 -36 -63 -17 -133 -36 -155 -41 -22 -5 -47 -12
-55 -16 -8 -3 -24 -7 -35 -9 -11 -1 -69 -17 -130 -35 -60 -17 -119 -32 -130
-34 -11 -1 -20 -3 -20 -4 0 -2 -9 -4 -20 -7 -11 -2 -85 -22 -165 -44 -80 -22
-154 -42 -165 -44 -11 -2 -63 -16 -115 -30 -52 -15 -103 -29 -112 -31 -10 -3
-27 -7 -38 -10 -93 -20 -417 -119 -435 -133 -11 -8 -16 -23 -20 -67 -4 -39
-14 -114 -19 -141 -6 -31 -15 -114 -32 -294 -15 -162 -15 -170 -2 -171 7 0
317 -2 688 -4 623 -4 765 -7 860 -20 19 -2 64 -7 100 -10 36 -3 83 -7 105 -10
22 -2 67 -7 100 -10 32 -3 62 -8 65 -11 3 -3 10 -40 16 -82 l11 -77 -68 -65
c-37 -36 -127 -121 -200 -190 -73 -69 -142 -135 -153 -148 -11 -12 -23 -22
-27 -22 -4 0 -43 -16 -86 -37 -252 -118 -340 -158 -368 -166 -11 -4 -83 -9
-160 -12 -77 -4 -176 -8 -220 -11 -44 -2 -133 -6 -198 -9 l-118 -5 -167 51
c-92 28 -171 52 -177 54 -5 1 -17 5 -25 8 -8 3 -52 17 -98 31 -72 22 -108 42
-179 101 -7 5 -19 16 -27 22 -8 7 -19 13 -25 13 -5 0 -11 3 -13 8 -1 4 -39 34
-83 67 -44 33 -82 62 -85 65 -3 3 -29 23 -57 44 -29 20 -74 63 -100 94 -27 31
-52 62 -58 68 -5 6 -21 26 -35 44 -14 18 -30 38 -35 44 -6 6 -30 36 -55 66
-25 30 -51 61 -58 68 -33 36 -66 89 -137 227 -43 83 -102 196 -132 252 -44 84
-89 206 -118 323 -2 8 -20 70 -39 138 -20 67 -52 176 -71 241 -30 104 -45 193
-49 294 0 15 -3 27 -6 27 -3 0 -5 17 -6 38 0 20 -4 62 -8 92 -4 30 -8 62 -8
70 0 8 -6 65 -13 125 -7 61 -13 117 -13 125 0 8 -3 33 -7 55 -12 73 -14 191
-4 233 11 48 21 106 24 142 2 14 4 25 5 25 1 0 3 16 6 35 2 19 9 59 15 88 9
47 14 73 23 138 2 11 23 61 47 110 24 49 44 91 44 94 1 3 9 21 20 40 10 19 46
91 80 160 52 103 72 134 120 178 31 28 59 52 61 52 3 0 15 10 28 23 12 12 51
47 86 77 34 30 78 69 98 87 21 20 50 34 76 39 22 3 52 9 66 11 14 3 36 7 50 8
14 2 25 4 25 5 0 12 154 17 210 7 17 -3 62 -9 100 -13 39 -4 78 -8 88 -10 9
-1 27 -2 40 -3 13 0 33 -10 45 -21 12 -11 25 -20 31 -20 5 0 11 -4 13 -8 2 -4
17 -17 34 -27 18 -11 72 -48 120 -82 49 -34 116 -80 148 -103 33 -22 66 -51
75 -63 8 -12 17 -24 20 -27 4 -3 26 -32 51 -65 25 -33 50 -66 57 -75 162 -207
172 -223 348 -555 26 -49 62 -117 80 -150 18 -33 40 -73 49 -90 8 -16 34 -84
57 -150 38 -111 83 -239 96 -275 3 -8 7 -19 9 -25 9 -34 106 -299 115 -318 7
-12 12 -24 11 -27 -1 -3 5 -26 13 -51 16 -46 25 -54 92 -79 36 -13 56 -7 308
95 11 5 22 9 25 10 17 6 50 19 80 31 20 9 42 16 50 18 8 1 31 9 50 18 19 9 80
33 135 53 55 20 119 45 142 56 24 10 48 19 54 19 6 0 25 7 42 15 67 30 135 54
141 48 3 -4 6 -1 6 5 0 7 7 12 15 12 8 0 23 4 33 9 22 12 177 71 185 71 4 0
26 9 50 19 23 11 85 36 137 56 128 48 149 77 186 242 14 65 28 127 30 138 3
11 6 31 9 45 2 14 10 54 19 90 8 36 18 81 21 100 3 19 12 63 20 98 8 34 17 77
20 95 3 17 8 39 10 47 2 8 7 29 10 45 3 17 8 39 10 50 3 11 7 29 9 40 2 11 7
31 10 45 13 57 68 326 71 345 2 11 13 65 25 120 12 55 23 109 26 120 2 11 9
45 15 75 7 30 13 64 15 75 1 11 3 21 4 23 3 2 3 4 14 57 5 22 10 49 11 60 2
11 10 49 19 85 14 61 25 116 32 165 1 11 3 20 4 20 1 0 3 8 5 19 2 10 8 39 14
65 10 42 16 72 26 126 2 11 7 34 11 50 4 17 8 40 8 53 1 12 5 22 10 22 5 0 7
3 4 6 -3 3 -2 20 3 37 4 18 11 48 14 67 3 19 8 43 11 53 3 11 7 29 9 40 2 12
13 69 24 127 12 58 24 116 27 130 3 14 7 33 10 42 3 10 7 30 10 45 2 16 7 39
10 53 3 14 8 35 10 46 3 19 37 181 50 239 2 11 7 36 11 55 9 47 10 50 13 53 1
1 3 11 4 22 2 18 14 79 23 115 2 8 5 26 7 40 2 14 9 43 15 65 9 36 16 109 12
143 -1 17 -103 14 -161 -5z"/>
</g>
</svg>
